<svg width="296" height="59" viewBox="0 0 296 59" fill="none" xmlns="http://www.w3.org/2000/svg">
<path d="M42.3906 19.2891H33.8359L32.3516 11.4766C31.362 10.8516 29.9167 10.3047 28.0156 9.83594C26.1146 9.36719 24.0964 9.13281 21.9609 9.13281C18.8359 9.13281 16.4141 9.79688 14.6953 11.125C13.0026 12.4271 12.1562 14.1198 12.1562 16.2031C12.1562 18.1302 13.0417 19.7188 14.8125 20.9688C16.6094 22.1927 19.6953 23.4948 24.0703 24.875C30.3464 26.6198 35.099 28.9245 38.3281 31.7891C41.5833 34.6536 43.2109 38.4167 43.2109 43.0781C43.2109 47.9479 41.2839 51.7891 37.4297 54.6016C33.5755 57.4141 28.4974 58.8203 22.1953 58.8203C17.6901 58.8203 13.6146 58.1042 9.96875 56.6719C6.34896 55.2396 3.32812 53.2604 0.90625 50.7344V38.8594H9.73438L10.9453 46.9453C12.0911 47.8828 13.6406 48.6641 15.5938 49.2891C17.5729 49.888 19.7734 50.1875 22.1953 50.1875C25.3203 50.1875 27.6901 49.5495 29.3047 48.2734C30.9453 46.9974 31.7656 45.2917 31.7656 43.1562C31.7656 40.9688 30.9844 39.2109 29.4219 37.8828C27.8854 36.5547 25.1771 35.3047 21.2969 34.1328C14.5521 32.1797 9.44792 29.862 5.98438 27.1797C2.52083 24.4974 0.789062 20.8255 0.789062 16.1641C0.789062 11.5547 2.74219 7.79167 6.64844 4.875C10.5547 1.93229 15.4635 0.421875 21.375 0.34375C25.75 0.34375 29.7344 1.00781 33.3281 2.33594C36.9219 3.66406 39.9427 5.4349 42.3906 7.64844V19.2891ZM102.586 15.9297L102.352 15.8906L87.1172 58H79.4609L64.3047 16.0469L64.0703 16.0859L65.1641 41.0469V49.9922L71.2578 51.1641V58H47.7031V51.1641L53.7578 49.9922V9.17188L47.7031 8V1.125H53.7578H68.6406L83.1328 43.0391H83.3672L97.9766 1.125H118.992V8L112.898 9.17188V49.9922L118.992 51.1641V58H95.4375V51.1641L101.492 49.9922V41.0469L102.586 15.9297ZM166.297 19.2891H157.742L156.258 11.4766C155.268 10.8516 153.823 10.3047 151.922 9.83594C150.021 9.36719 148.003 9.13281 145.867 9.13281C142.742 9.13281 140.32 9.79688 138.602 11.125C136.909 12.4271 136.062 14.1198 136.062 16.2031C136.062 18.1302 136.948 19.7188 138.719 20.9688C140.516 22.1927 143.602 23.4948 147.977 24.875C154.253 26.6198 159.005 28.9245 162.234 31.7891C165.49 34.6536 167.117 38.4167 167.117 43.0781C167.117 47.9479 165.19 51.7891 161.336 54.6016C157.482 57.4141 152.404 58.8203 146.102 58.8203C141.596 58.8203 137.521 58.1042 133.875 56.6719C130.255 55.2396 127.234 53.2604 124.812 50.7344V38.8594H133.641L134.852 46.9453C135.997 47.8828 137.547 48.6641 139.5 49.2891C141.479 49.888 143.68 50.1875 146.102 50.1875C149.227 50.1875 151.596 49.5495 153.211 48.2734C154.852 46.9974 155.672 45.2917 155.672 43.1562C155.672 40.9688 154.891 39.2109 153.328 37.8828C151.792 36.5547 149.083 35.3047 145.203 34.1328C138.458 32.1797 133.354 29.862 129.891 27.1797C126.427 24.4974 124.695 20.8255 124.695 16.1641C124.695 11.5547 126.648 7.79167 130.555 4.875C134.461 1.93229 139.37 0.421875 145.281 0.34375C149.656 0.34375 153.641 1.00781 157.234 2.33594C160.828 3.66406 163.849 5.4349 166.297 7.64844V19.2891ZM200.477 58C200.242 56.8542 200.06 55.8255 199.93 54.9141C199.799 54.0026 199.708 53.0911 199.656 52.1797C198.172 54.0807 196.31 55.6693 194.07 56.9453C191.857 58.1953 189.487 58.8203 186.961 58.8203C182.56 58.8203 179.214 57.7526 176.922 55.6172C174.63 53.4557 173.484 50.4219 173.484 46.5156C173.484 42.5052 175.099 39.4193 178.328 37.2578C181.583 35.0703 186.036 33.9766 191.688 33.9766H199.617V29.0547C199.617 26.5807 198.836 24.6276 197.273 23.1953C195.711 21.737 193.536 21.0078 190.75 21.0078C188.823 21.0078 187.117 21.2552 185.633 21.75C184.174 22.2448 182.99 22.9219 182.078 23.7812L181.258 28.2344H175.32V20.0312C177.247 18.4948 179.578 17.2708 182.312 16.3594C185.047 15.4219 188.016 14.9531 191.219 14.9531C196.01 14.9531 199.891 16.1771 202.859 18.625C205.828 21.0729 207.312 24.5755 207.312 29.1328V49.4844C207.312 50.0312 207.312 50.5651 207.312 51.0859C207.339 51.6068 207.378 52.1276 207.43 52.6484L210.555 53.0781V58H200.477ZM188.094 52.375C190.646 52.375 192.977 51.763 195.086 50.5391C197.195 49.3151 198.706 47.8438 199.617 46.125V39.1719H191.414C188.263 39.1719 185.763 39.901 183.914 41.3594C182.091 42.8177 181.18 44.5885 181.18 46.6719C181.18 48.5208 181.753 49.9401 182.898 50.9297C184.044 51.8932 185.776 52.375 188.094 52.375ZM230.828 20.6953L225.75 21.4766L234.461 45.5391L235.164 48.5859H235.398L236.141 45.5391L244.578 21.4766L239.461 20.6953V15.7344H255.789V20.6953L252.312 21.2812L238.133 58H232.312L217.977 21.2812L214.5 20.6953V15.7344H230.828V20.6953ZM279.773 58.8203C273.888 58.8203 269.201 56.8672 265.711 52.9609C262.247 49.0286 260.516 43.9375 260.516 37.6875V35.9688C260.516 29.9531 262.299 24.9531 265.867 20.9688C269.461 16.9583 273.706 14.9531 278.602 14.9531C284.279 14.9531 288.576 16.6719 291.492 20.1094C294.435 23.5469 295.906 28.1302 295.906 33.8594V38.6641H268.484L268.367 38.8594C268.445 42.9219 269.474 46.2682 271.453 48.8984C273.432 51.5026 276.206 52.8047 279.773 52.8047C282.378 52.8047 284.656 52.4401 286.609 51.7109C288.589 50.9557 290.294 49.9271 291.727 48.625L294.734 53.625C293.224 55.0833 291.219 56.3203 288.719 57.3359C286.245 58.3255 283.263 58.8203 279.773 58.8203ZM278.602 21.0078C276.023 21.0078 273.823 22.1016 272 24.2891C270.177 26.4505 269.057 29.1719 268.641 32.4531L268.719 32.6484H288.211V31.6328C288.211 28.612 287.404 26.0859 285.789 24.0547C284.174 22.0234 281.779 21.0078 278.602 21.0078Z" fill="white"/>
</svg>
