<svg width="419" height="348" viewBox="0 0 419 348" fill="none" xmlns="http://www.w3.org/2000/svg">
<path d="M106.511 285.538L16.9912 348V17.8462C16.9912 13.1131 19.1083 8.57382 22.8767 5.22702C26.6451 1.88021 31.7561 0 37.0854 0H398.781C404.11 0 409.221 1.88021 412.99 5.22702C416.758 8.57382 418.875 13.1131 418.875 17.8462V267.692C418.875 272.425 416.758 276.965 412.99 280.311C409.221 283.658 404.11 285.538 398.781 285.538H106.511Z" fill="#0090EA"/>
<path d="M37.4795 127.096C66.8243 133.148 98.1934 146.176 120.598 172.487C143.944 199.843 154.56 233.009 157.39 262.976L144.654 262.976C141.824 234.522 130.658 203.394 110.692 180.052C89.9397 155.735 62.5796 146.765 37.4795 140.713L37.4795 127.096ZM37.1738 158.87C59.7494 161.896 81.7739 177.691 97.9562 196.696C114.813 216.448 124.843 240.574 127.673 262.976L113.522 262.976C110.692 243.6 101.777 221.82 88.0507 205.774C73.7869 189.06 55.5042 177.026 37.1738 174L37.1738 158.87ZM37.4795 196.696C53.2549 199 67.2958 208.805 77.2549 220.5C87.6285 232.656 92.1944 249.399 94.7548 262.976L84.7549 262.976C82.7742 252.432 76.7413 235.252 69.2549 226.5C61.4747 217.383 46.7844 208.747 37.4795 205.774L37.4795 196.696Z" fill="white"/>
<path d="M122.064 68.4502H112.44L110.771 59.6611C109.657 58.958 108.031 58.3428 105.893 57.8154C103.754 57.2881 101.483 57.0244 99.0811 57.0244C95.5654 57.0244 92.8408 57.7715 90.9072 59.2656C89.0029 60.7305 88.0508 62.6348 88.0508 64.9785C88.0508 67.1465 89.0469 68.9336 91.0391 70.3398C93.0605 71.7168 96.5322 73.1816 101.454 74.7344C108.515 76.6973 113.861 79.29 117.494 82.5127C121.156 85.7354 122.987 89.9688 122.987 95.2129C122.987 100.691 120.819 105.013 116.483 108.177C112.147 111.341 106.435 112.923 99.3447 112.923C94.2764 112.923 89.6914 112.117 85.5898 110.506C81.5176 108.895 78.1191 106.668 75.3945 103.826V90.4668H85.3262L86.6885 99.5635C87.9775 100.618 89.7207 101.497 91.918 102.2C94.1445 102.874 96.6201 103.211 99.3447 103.211C102.86 103.211 105.526 102.493 107.343 101.058C109.188 99.6221 110.111 97.7031 110.111 95.3008C110.111 92.8398 109.232 90.8623 107.475 89.3682C105.746 87.874 102.699 86.4678 98.334 85.1494C90.7461 82.9521 85.0039 80.3447 81.1074 77.3271C77.2109 74.3096 75.2627 70.1787 75.2627 64.9346C75.2627 59.749 77.46 55.5156 81.8545 52.2344C86.249 48.9238 91.7715 47.2246 98.4219 47.1367C103.344 47.1367 107.826 47.8838 111.869 49.3779C115.912 50.8721 119.311 52.8643 122.064 55.3545V68.4502ZM189.784 64.6709L189.521 64.627L172.382 112H163.769L146.718 64.8027L146.454 64.8467L147.685 92.9277V102.991L154.54 104.31V112H128.041V104.31L134.853 102.991V57.0684L128.041 55.75V48.0156H134.853H151.596L167.899 95.1689H168.163L184.599 48.0156H208.241V55.75L201.386 57.0684V102.991L208.241 104.31V112H181.742V104.31L188.554 102.991V92.9277L189.784 64.6709ZM261.459 68.4502H251.835L250.165 59.6611C249.052 58.958 247.426 58.3428 245.287 57.8154C243.148 57.2881 240.878 57.0244 238.476 57.0244C234.96 57.0244 232.235 57.7715 230.302 59.2656C228.397 60.7305 227.445 62.6348 227.445 64.9785C227.445 67.1465 228.441 68.9336 230.434 70.3398C232.455 71.7168 235.927 73.1816 240.849 74.7344C247.909 76.6973 253.256 79.29 256.889 82.5127C260.551 85.7354 262.382 89.9688 262.382 95.2129C262.382 100.691 260.214 105.013 255.878 108.177C251.542 111.341 245.829 112.923 238.739 112.923C233.671 112.923 229.086 112.117 224.984 110.506C220.912 108.895 217.514 106.668 214.789 103.826V90.4668H224.721L226.083 99.5635C227.372 100.618 229.115 101.497 231.312 102.2C233.539 102.874 236.015 103.211 238.739 103.211C242.255 103.211 244.921 102.493 246.737 101.058C248.583 99.6221 249.506 97.7031 249.506 95.3008C249.506 92.8398 248.627 90.8623 246.869 89.3682C245.141 87.874 242.094 86.4678 237.729 85.1494C230.141 82.9521 224.398 80.3447 220.502 77.3271C216.605 74.3096 214.657 70.1787 214.657 64.9346C214.657 59.749 216.854 55.5156 221.249 52.2344C225.644 48.9238 231.166 47.2246 237.816 47.1367C242.738 47.1367 247.221 47.8838 251.264 49.3779C255.307 50.8721 258.705 52.8643 261.459 55.3545V68.4502Z" fill="white"/>
<path d="M261.945 155.922H256.125L254.68 147.797C253.508 146.807 251.945 145.987 249.992 145.336C248.039 144.685 245.773 144.359 243.195 144.359C239.107 144.359 235.969 145.232 233.781 146.977C231.594 148.695 230.5 150.948 230.5 153.734C230.5 156.208 231.607 158.279 233.82 159.945C236.06 161.586 239.667 163.031 244.641 164.281C250.63 165.766 255.174 167.953 258.273 170.844C261.398 173.734 262.961 177.315 262.961 181.586C262.961 186.169 261.086 189.854 257.336 192.641C253.612 195.427 248.729 196.82 242.688 196.82C238.312 196.82 234.419 196.104 231.008 194.672C227.622 193.24 224.862 191.365 222.727 189.047V178.461H228.508L229.992 186.625C231.477 187.849 233.247 188.852 235.305 189.633C237.362 190.414 239.823 190.805 242.688 190.805C246.568 190.805 249.628 189.984 251.867 188.344C254.133 186.703 255.266 184.477 255.266 181.664C255.266 179.06 254.289 176.885 252.336 175.141C250.383 173.37 246.932 171.885 241.984 170.688C235.969 169.255 231.268 167.146 227.883 164.359C224.497 161.573 222.805 158.07 222.805 153.852C222.805 149.398 224.693 145.701 228.469 142.758C232.245 139.789 237.154 138.305 243.195 138.305C247.18 138.305 250.799 138.995 254.055 140.375C257.336 141.729 259.966 143.383 261.945 145.336V155.922ZM297.805 196C297.57 194.854 297.388 193.826 297.258 192.914C297.128 192.003 297.036 191.091 296.984 190.18C295.5 192.081 293.638 193.669 291.398 194.945C289.185 196.195 286.815 196.82 284.289 196.82C279.888 196.82 276.542 195.753 274.25 193.617C271.958 191.456 270.812 188.422 270.812 184.516C270.812 180.505 272.427 177.419 275.656 175.258C278.911 173.07 283.365 171.977 289.016 171.977H296.945V167.055C296.945 164.581 296.164 162.628 294.602 161.195C293.039 159.737 290.865 159.008 288.078 159.008C286.151 159.008 284.445 159.255 282.961 159.75C281.503 160.245 280.318 160.922 279.406 161.781L278.586 166.234H272.648V158.031C274.576 156.495 276.906 155.271 279.641 154.359C282.375 153.422 285.344 152.953 288.547 152.953C293.339 152.953 297.219 154.177 300.188 156.625C303.156 159.073 304.641 162.576 304.641 167.133V187.484C304.641 188.031 304.641 188.565 304.641 189.086C304.667 189.607 304.706 190.128 304.758 190.648L307.883 191.078V196H297.805ZM285.422 190.375C287.974 190.375 290.305 189.763 292.414 188.539C294.523 187.315 296.034 185.844 296.945 184.125V177.172H288.742C285.591 177.172 283.091 177.901 281.242 179.359C279.419 180.818 278.508 182.589 278.508 184.672C278.508 186.521 279.081 187.94 280.227 188.93C281.372 189.893 283.104 190.375 285.422 190.375ZM328.156 158.695L323.078 159.477L331.789 183.539L332.492 186.586H332.727L333.469 183.539L341.906 159.477L336.789 158.695V153.734H353.117V158.695L349.641 159.281L335.461 196H329.641L315.305 159.281L311.828 158.695V153.734H328.156V158.695ZM377.102 196.82C371.216 196.82 366.529 194.867 363.039 190.961C359.576 187.029 357.844 181.938 357.844 175.688V173.969C357.844 167.953 359.628 162.953 363.195 158.969C366.789 154.958 371.034 152.953 375.93 152.953C381.607 152.953 385.904 154.672 388.82 158.109C391.763 161.547 393.234 166.13 393.234 171.859V176.664H365.812L365.695 176.859C365.773 180.922 366.802 184.268 368.781 186.898C370.76 189.503 373.534 190.805 377.102 190.805C379.706 190.805 381.984 190.44 383.938 189.711C385.917 188.956 387.622 187.927 389.055 186.625L392.062 191.625C390.552 193.083 388.547 194.32 386.047 195.336C383.573 196.326 380.591 196.82 377.102 196.82ZM375.93 159.008C373.352 159.008 371.151 160.102 369.328 162.289C367.505 164.451 366.385 167.172 365.969 170.453L366.047 170.648H385.539V169.633C385.539 166.612 384.732 164.086 383.117 162.055C381.503 160.023 379.107 159.008 375.93 159.008Z" fill="white"/>
</svg>
