<svg width="448" height="368" viewBox="0 0 448 368" fill="none" xmlns="http://www.w3.org/2000/svg">
<path d="M135.509 305.539L45.9895 368V37.8463C45.9895 33.1132 48.1066 28.5739 51.875 25.2271C55.6433 21.8803 60.7544 20.0001 66.0837 20.0001H427.779C433.108 20.0001 438.22 21.8803 441.988 25.2271C445.756 28.5739 447.873 33.1132 447.873 37.8463V287.692C447.873 292.426 445.756 296.965 441.988 300.312C438.22 303.658 433.108 305.539 427.779 305.539H135.509Z" fill="#0090EA"/>
<path d="M67.1692 42.3446C120.362 53.897 177.339 78.1333 218.328 126.268C261.039 176.315 280.82 236.639 286.46 291.012L263.42 290.759C257.806 239.128 237.064 182.487 200.539 139.783C162.573 95.295 112.92 78.4944 67.4058 67.0263L67.1692 42.3446ZM67.1681 99.9292C108.062 105.862 148.182 134.929 177.787 169.697C208.627 205.834 227.191 249.761 232.699 290.421L207.099 290.14C201.643 254.965 185.135 215.311 160.025 185.954C133.93 155.377 100.645 133.202 67.4309 127.353L67.1681 99.9292ZM68.3783 168.496C96.9577 172.986 122.53 191.037 140.75 212.431C159.728 234.67 168.279 265.107 173.147 289.768L155.056 289.569C151.29 270.418 140.077 239.16 126.381 223.148C112.147 206.469 85.4212 190.523 68.536 184.95L68.3783 168.496Z" fill="white"/>
</svg>
